<mxfile host="app.diagrams.net" modified="2023-10-30T12:10:43.519Z" agent="Mozilla/5.0 (Macintosh; Intel Mac OS X 10_15_7) AppleWebKit/537.36 (KHTML, like Gecko) Chrome/116.0.0.0 Safari/537.36" version="22.0.8" etag="GSUDrtlqDnb7_aLjPW-J" type="github">
  <diagram name="Page-1" id="Qw5Gyjk6pyc6rY_EdufF">
    <mxGraphModel>
      <root>
        <mxCell id="0" />
        <mxCell id="1" parent="0" />
      </root>
    </mxGraphModel>
  </diagram>
</mxfile>
